<svg width="295" height="177" viewBox="0 0 295 177" fill="none" xmlns="http://www.w3.org/2000/svg">
<path fill-rule="evenodd" clip-rule="evenodd" d="M239.605 100.546C237.039 96.078 227.926 92.2291 224.386 97.7592C219.88 104.784 236.947 104.573 240.167 103.956C239.928 104.019 238.915 105.055 237.893 106.101C236.971 107.045 236.042 107.995 235.668 108.244C233.766 109.572 231.73 110.589 229.563 111.297C228.984 111.495 228.153 111.607 227.278 111.725C225.811 111.922 224.222 112.136 223.502 112.801C222.351 113.907 222.263 117.491 222.484 119.039C222.794 120.942 226.598 126.914 228.235 122.313C229.253 119.349 225.846 119.57 224.519 121.251C225.183 117.004 231.111 115.323 232.173 120.145C232.836 123.154 230.315 126.516 227.351 126.958C224.032 127.489 221.024 124.702 218.945 122.534C218.455 124.724 218.123 126.92 217.794 129.101C216.992 134.41 216.204 139.622 213.193 144.389C210.539 148.548 205.318 155.361 200.01 156.467C200.983 156.511 204.522 157.971 204.257 159.608C204.124 160.449 201.16 161.776 200.585 161.997C198.518 162.846 196.291 162.432 194.093 162.024C191.821 161.601 189.579 161.185 187.578 162.174C185.836 163.032 185.909 163.055 186.432 163.221C186.826 163.345 187.476 163.551 187.799 164.254C188.241 165.271 187.401 166.82 186.251 166.952C185.886 167.001 185.414 166.622 185.004 166.293C184.669 166.023 184.375 165.787 184.215 165.846C184.304 165.802 183.286 169.917 182.932 170.359C182.092 171.509 181.207 171.996 179.791 172.306C177.27 172.836 174.04 173.235 173.067 170.58C172.69 169.536 172.617 167.979 172.549 166.532C172.513 165.771 172.479 165.04 172.403 164.431C172.345 164.085 172.238 163.864 172.141 163.667C172.016 163.41 171.911 163.194 171.961 162.794C171.988 162.63 172.217 162.387 172.484 162.102C173.085 161.464 173.879 160.619 173.022 160.007C172.991 159.991 172.649 160.106 172.197 160.259C171.362 160.541 170.153 160.949 169.837 160.891C169.926 161.865 169.483 163.015 168.731 163.679C168.189 164.14 167.513 164.285 166.837 164.43C166.41 164.522 165.984 164.613 165.59 164.785C164.17 165.43 163.337 166.409 162.356 167.561L162.272 167.66C161.986 167.988 161.704 168.335 161.418 168.685C159.622 170.888 157.718 173.225 154.397 171.775C153.621 171.42 153.279 171.454 153.191 171.32C153.103 171.187 153.269 170.888 153.512 169.872C153.536 169.788 153.721 169.465 153.966 169.035C154.622 167.886 155.712 165.975 155.326 165.846C155.225 165.826 154.544 166.441 153.783 167.129C152.876 167.948 151.854 168.871 151.565 168.943C151.123 169.076 149.884 168.987 149.884 168.987C149.87 168.987 149.855 168.906 149.836 168.799C149.797 168.579 149.738 168.25 149.619 168.28C148.533 168.611 148.249 171.101 148.024 173.074C147.919 173.995 147.827 174.803 147.672 175.225C147.314 176.166 147.364 176.449 147.248 176.563C147.135 176.673 146.864 176.622 145.903 176.862C144.577 177.168 142.597 176.9 140.969 176.678C140.478 176.612 140.02 176.549 139.62 176.508C132.453 175.845 125.375 174.208 118.562 171.775C109.227 168.412 100.467 163.546 92.6362 157.441C90.4241 155.759 88.3006 153.99 86.3097 152.043C85.496 151.252 85.0749 150.946 84.9993 150.57C84.9268 150.211 85.171 149.787 85.6903 148.814C87.6812 145.141 91.8841 141.602 95.8658 145.053C97.2707 146.316 98.0036 148.1 98.7255 149.857C99.7995 152.472 100.849 155.027 104.05 155.715C108.563 156.644 113.076 151.91 111.704 147.531C111.493 146.861 111.252 146.186 111.01 145.508C109.734 141.925 108.421 138.241 111.173 134.745C110.695 134.803 109.969 134.832 109.127 134.865C106.152 134.981 101.73 135.154 101.661 136.913C101.661 137.297 102.035 137.442 102.393 137.582C102.613 137.668 102.827 137.751 102.944 137.886C103.136 138.138 103.3 138.363 103.451 138.568C104.17 139.549 104.562 140.083 105.953 141.071C107.669 142.284 108.316 143.873 109.02 145.6C109.369 146.455 109.731 147.344 110.244 148.238C108.956 148.139 107.535 148.475 106.124 148.808C104.385 149.219 102.66 149.627 101.219 149.212C99.8307 148.826 99.2043 147.604 98.5585 146.344C98.093 145.435 97.6174 144.507 96.8391 143.858C93.8319 141.335 91.4265 142.306 88.955 143.304C87.1361 144.038 85.2813 144.787 83.1243 144.168C81.045 143.549 77.5499 142.354 76.3554 140.319C76.1252 139.942 76.0435 139.516 75.9604 139.082C75.8679 138.6 75.7736 138.108 75.4706 137.665C75.281 137.387 74.8133 137.051 74.2852 136.671C72.965 135.723 71.2677 134.505 72.5949 133.241C72.963 132.873 73.6661 133.031 74.3309 133.18C74.9445 133.319 75.5255 133.449 75.7803 133.152C76.2445 132.636 75.6414 131.97 75.0926 131.364C74.6999 130.93 74.335 130.527 74.4088 130.232C74.5493 129.53 75.4429 129.636 76.248 129.732C76.4569 129.757 76.6598 129.781 76.8421 129.79C77.5073 129.816 78.0284 129.899 78.4248 129.962C79.3466 130.108 79.5937 130.147 79.4081 129.126C79.332 128.689 78.7079 128.12 78.0597 127.53C77.2006 126.748 76.2992 125.927 76.5766 125.321C76.7747 124.881 77.8591 124.792 78.921 124.703C79.9942 124.615 81.0445 124.527 81.1335 124.083C81.2662 123.596 75.6918 123.065 75.1609 123.065C71.3404 123.205 68.0475 124.984 64.7761 126.751C63.9184 127.214 63.0621 127.677 62.1983 128.109C62.2502 127.731 62.3083 127.347 62.3668 126.961C62.8564 123.73 63.3811 120.266 60.6941 117.579C62.1983 116.562 63.1716 115.057 63.7025 113.067C63.0409 114.045 62.0987 114.293 61.1557 114.542C60.6484 114.676 60.1408 114.81 59.6765 115.057C62.6849 110.058 64.1891 105.059 65.6491 99.5288C62.2425 102.935 53.2615 104.44 55.2966 96.8744C55.7833 95.1047 57.5529 92.4503 59.7208 92.6715C62.1098 92.9369 62.5522 96.255 60.2074 97.0071C61.1365 95.2817 59.3668 93.9545 58.1281 95.5029C57.1548 96.7416 58.2166 98.8652 59.6323 99.1307C63.7025 99.8828 67.109 90.5036 60.6941 90.5036C61.9163 90.0254 62.7485 88.6535 63.5853 87.2739C64.8384 85.2079 66.102 83.1248 68.7017 84.0002C68.477 83.1012 67.62 82.7589 66.8586 82.4548C65.9713 82.1004 65.2137 81.7978 65.7376 80.7263C65.7791 80.6432 66.2601 80.3159 66.7493 79.9831C67.3014 79.6075 67.8638 79.2248 67.8169 79.1779C67.454 78.624 66.7861 78.5896 66.0444 78.5514C65.0681 78.5011 63.964 78.4442 63.26 77.1871C62.8619 76.4792 61.8443 74.3556 61.7116 73.6478C61.692 73.5496 61.5067 73.4165 61.3105 73.2756C61.0649 73.0992 60.8022 72.9105 60.8268 72.7629C60.8268 72.6526 61.9928 72.4323 63.1893 72.2063C64.3925 71.9789 65.6266 71.7458 65.7376 71.6127C67.184 69.6731 64.1113 69.2724 62.4006 69.0494C61.8091 68.9723 61.3804 68.9164 61.3577 68.8255C61.1735 68.2115 62.8259 66.8875 64.5719 65.4885C66.6004 63.8632 68.7553 62.1366 68.3035 61.3045C68.1487 61.0141 67.2738 61.0371 66.3202 61.0622C65.0944 61.0945 63.7384 61.1302 63.614 60.5081C63.4989 60.0248 65.0362 58.9786 66.65 57.8806C68.1381 56.8679 69.6911 55.8111 70.0732 55.1107C70.7033 53.9405 71.1502 52.633 71.6003 51.3162C72.0352 50.0442 72.4729 48.7635 73.0816 47.5897C74.2761 45.3334 75.6918 43.1656 77.2845 41.1305C80.5141 37.0603 84.4958 33.6537 88.8314 30.8223C85.3364 28.389 86.4424 23.3455 90.1144 21.9741C92.238 21.1777 94.8925 21.4432 97.1046 21.9298C97.3192 21.9628 97.6696 22.0945 98.0497 22.2374C98.6878 22.4772 99.4098 22.7486 99.7148 22.6377C100.261 22.4961 100.197 22.447 100.055 22.3382C99.8866 22.209 99.6085 21.9956 100.113 21.4432C100.201 21.355 103.582 18.1497 103.564 18.4751C103.594 18.1105 102.749 17.7157 101.727 17.2382C100.271 16.5579 98.4548 15.7096 98.2991 14.5415C98.0336 12.7277 100.024 11.3119 101.352 10.4714C102.06 10.0289 106.351 7.77264 106.97 8.30353C107.528 8.77311 105.983 10.4887 104.944 11.6422C104.417 12.2275 104.02 12.6681 104.095 12.7277C104.253 12.8681 104.954 12.4444 105.784 11.9429C107.046 11.1804 108.605 10.2381 109.005 10.8253C109.297 11.2469 107.259 13.0715 106.185 14.0328C105.794 14.3827 105.531 14.6182 105.555 14.63C105.75 14.7363 106.519 14.3105 107.403 13.8213C108.727 13.089 110.306 12.2149 110.598 12.7719C111.018 13.5828 109.74 14.3407 108.665 14.9785C108.04 15.3499 107.482 15.6805 107.369 15.9573C107.357 15.9794 107.357 16.2697 107.357 16.7066C107.357 18.0172 107.357 20.6468 107.059 21.3104C107.59 20.9565 109.448 19.3196 109.404 19.3196C111.881 17.5057 114.845 16.4439 117.942 16.4882C119.358 16.5324 120.906 16.7978 122.145 17.4615C122.301 17.5479 122.551 17.7831 122.824 18.0401C123.251 18.4407 123.734 18.8945 124.003 18.9214C124.224 18.9214 124.313 18.9657 124.401 19.0099C124.401 18.9473 124.446 18.9069 124.534 18.826C124.571 18.7925 124.615 18.752 124.667 18.7002C124.655 18.7123 124.725 18.5728 124.833 18.359C125.12 17.7896 125.672 16.6932 125.64 16.5324C125.578 16.1 125.191 15.7443 124.79 15.3761C124.329 14.9531 123.85 14.5135 123.826 13.9222C123.738 12.064 130.374 8.56898 131.214 9.32108C131.589 9.66868 130.379 10.5334 129.403 11.2316C128.764 11.6886 128.225 12.0742 128.295 12.1968C128.374 12.3359 129.203 12.0733 130.149 11.7739C131.308 11.4068 132.643 10.9843 132.984 11.1792C133 11.1952 132.522 11.5889 131.911 12.0927C130.835 12.9794 129.344 14.2075 129.401 14.3203C129.489 14.4795 130.151 14.2356 130.946 13.9419C132.141 13.5012 133.639 12.9487 133.957 13.4798C134.174 13.8199 132.272 15.0245 130.866 15.9154C130.26 16.2991 129.746 16.6247 129.533 16.7978C129.932 16.9748 130.551 20.1159 129.843 19.5408C130.001 19.6725 130.19 19.6631 130.402 19.6525C130.546 19.6454 130.699 19.6377 130.861 19.6735C131.439 19.7837 132.377 19.3968 133.227 19.0463C133.743 18.8336 134.226 18.6343 134.577 18.5675C137.01 18.0366 139.045 18.2578 141.257 19.2753C141.701 19.4784 142.124 19.7142 142.543 19.9484C143.585 20.5304 144.609 21.1019 145.903 21.1335C147.223 21.1635 148.361 20.664 149.508 20.1601C150.052 19.9213 150.598 19.6815 151.167 19.4966C154.735 18.3633 154.679 19.4202 154.513 22.554C154.504 22.7233 154.494 22.8987 154.485 23.0801C154.475 23.3 154.492 23.6239 154.511 23.9985C154.574 25.207 154.664 26.9429 153.954 27.4157C153.525 27.692 152.307 27.3719 151.35 27.1204C150.928 27.0095 150.557 26.9119 150.327 26.8848C148.557 26.6636 146.699 26.5309 145.018 27.283C144.278 27.621 143.66 28.1607 143.042 28.6999C142.366 29.2899 141.691 29.8793 140.859 30.2029C140.726 30.2472 138.382 30.6011 138.382 30.5568C136.833 33.521 151.654 38.7857 150.282 32.0168C150.017 30.6896 148.292 29.849 147.495 31.132C147.327 31.3844 147.532 31.8502 147.682 32.1912C147.769 32.3881 147.837 32.5434 147.805 32.5919C147.767 32.649 147.747 32.7101 147.728 32.7713C147.656 32.9951 147.583 33.2208 146.61 33.2556C143.602 33.3883 143.867 29.6278 145.858 28.4775C149.176 26.5751 153.291 30.2029 152.981 33.6537C152.273 41.5729 139.355 37.2373 136.258 33.6537C135.979 33.3423 135.737 32.9641 135.495 32.5867C135.085 31.9451 134.675 31.3056 134.09 30.9993C133.78 30.8223 129.843 30.2914 129.799 30.5126C130.304 30.1516 130.751 32.5001 130.922 33.4011C130.96 33.6044 130.985 33.7341 130.993 33.7422C131.194 33.9065 131.756 33.8524 132.36 33.7942C133.22 33.7115 134.163 33.6206 134.267 34.1404C134.372 34.6368 133.535 34.8864 132.823 35.0986C132.33 35.2458 131.896 35.375 131.878 35.5561C132.587 35.7523 133.312 35.9176 134.04 36.0836C135.446 36.4043 136.864 36.7276 138.205 37.2815C140.722 38.3167 142.839 40.015 144.962 41.7177C146.83 43.2169 148.703 44.7194 150.858 45.7758C153.733 47.1473 160.104 48.4303 159.662 43.2098C159.529 41.7941 157.361 39.4051 156.476 41.8383C156.214 42.5968 156.836 43.0667 157.278 43.4003C157.506 43.5727 157.686 43.7086 157.671 43.8292C157.494 45.82 153.556 43.8292 153.689 41.2632C154.087 34.627 165.147 39.3166 162.537 46.1297C161.077 50.023 156.963 50.9963 153.202 50.1114C152.348 49.9172 146.923 47.2331 145.792 46.2818C147.96 49.4468 149.044 53.1036 149.044 56.9688C148.384 55.8626 147.796 54.7117 147.218 53.5782C145.158 49.5438 143.211 45.7296 138.514 44.9352C138.514 45.9139 138.673 46.4853 138.786 46.89C139.02 47.7291 139.054 47.8515 137.054 49.4036C134.975 51.0405 133.073 52.7659 131.17 54.5798C130.636 55.0823 130.107 55.621 129.571 56.1658C127.088 58.6907 124.477 61.3458 120.729 61.1275C120.402 61.1073 120.083 61.0852 119.773 61.0637C116.688 60.8498 114.389 60.6904 111.616 62.9414C108.607 65.3304 106.926 69.2236 106.926 73.0284C108.016 71.6481 109.901 70.851 111.71 70.0858C113.207 69.4529 114.652 68.8418 115.553 67.9406C115.239 71.8332 112.542 74.122 109.816 76.4349C108.701 77.3817 107.58 78.3326 106.616 79.3991C104.803 81.4784 100.998 86.168 103.652 88.9994C104.227 89.6188 105.555 90.2382 106.351 89.4861C107.358 88.5124 106.582 88.1502 105.955 87.8582C105.757 87.7654 105.573 87.6797 105.466 87.5837C105.348 87.4658 104.994 87.8 104.758 88.0229C104.64 88.1343 104.552 88.2179 104.537 88.2031C103.652 87.1856 105.909 85.7256 106.661 85.7256C111.394 85.8141 107.236 95.8568 102.281 91.5654C102.325 92.0521 103.21 96.6532 104.183 96.6532C104.448 96.6532 104.968 95.8582 105.446 95.1261C105.766 94.637 106.068 94.1759 106.262 93.9987C109.625 90.9018 116.349 92.2291 115.465 97.7592C114.934 100.989 109.05 103.555 109.359 98.8652C109.431 97.8873 109.567 98.1181 109.822 98.5525C110.041 98.9238 110.347 99.4438 110.775 99.4846C113.916 99.8385 113.031 94.5738 109.581 95.7241C105.422 97.0956 107.369 103.82 109.182 106.121C109.27 106.234 109.563 106.502 109.934 106.842C110.872 107.701 112.305 109.014 112.147 109.395C111.999 109.739 111.468 109.755 110.972 109.77C110.577 109.782 110.205 109.793 110.067 109.97C109.655 110.509 109.994 111.026 110.414 111.668C110.58 111.92 110.758 112.192 110.908 112.492C111.083 112.854 111.241 113.283 111.403 113.72C111.774 114.724 112.163 115.777 112.81 116.208C113.314 116.537 113.859 116.697 114.421 116.861C115.144 117.072 115.893 117.292 116.615 117.889C117.141 118.314 117.645 118.742 118.141 119.163C119.812 120.583 121.401 121.933 123.517 122.888C123.66 122.952 124.239 123.113 124.924 123.304C126.141 123.642 127.691 124.074 127.719 124.215C128.029 125.189 124.755 127.489 124.136 127.887C124.103 128.277 126.123 127.737 127.233 127.439C127.634 127.332 127.917 127.256 127.941 127.268C128.369 127.419 128.654 127.944 128.95 128.489C129.175 128.902 129.406 129.327 129.71 129.613C130.816 130.63 132.011 130.852 133.471 130.984L133.543 130.992C135.967 131.262 141.277 131.852 143.248 130.188C146.699 127.224 139.532 123.375 137.585 129.082C136.612 124.968 141.125 123.154 144.221 125.454C147.927 128.255 144.793 132.02 142.624 134.626C142.566 134.696 142.508 134.765 142.452 134.833C143.867 135.807 145.062 138.063 144.841 139.833C144.354 143.46 140.638 142.752 139.355 140.142C143.779 141.735 141.877 135.276 138.249 137.178C136.966 137.842 136.568 139.125 136.833 140.452C137.585 144.08 142.186 143.726 144.885 143.328C144.919 143.324 144.969 143.32 145.032 143.314C145.779 143.247 148.353 143.014 148.557 142.443C148.696 142.073 148.121 141.581 147.559 141.102C147.047 140.665 146.547 140.238 146.61 139.921C146.699 139.346 151.212 140.983 151.388 141.071C151.167 140.629 150.15 138.638 149.619 138.594C151.211 138.638 152.318 139.523 153.379 140.585C153.379 139.883 151.77 137.311 151.225 137.267C152.326 137.314 153.384 137.666 154.397 138.063C154.128 137.794 153.858 137.562 153.599 137.338C152.878 136.717 152.233 136.161 151.875 135.055C152.731 135.055 153.595 134.777 154.46 134.498C155.607 134.129 156.757 133.759 157.892 134.037C154.839 132.179 150.902 129.17 154.662 125.631C158.998 121.517 162.935 128.507 158.379 128.507C159.617 126.339 156.211 125.808 156.122 128.418C156.034 130.276 157.936 131.294 159.529 131.471C161.608 131.736 163.909 130.63 165.28 129.126C167.448 126.781 166.165 125.543 163.599 124.26C165.638 122.632 168.728 122.77 171.949 122.914C177.395 123.158 183.216 123.419 184.968 115.19C182.225 116.34 181.207 114.925 181.782 112.182C182.258 109.844 182.565 109.794 184.362 109.502L184.481 109.483C184.953 109.409 185.346 109.385 185.713 109.362C186.447 109.316 187.076 109.277 188.02 108.864C189.05 108.388 190.187 107.593 191.144 106.924C191.256 106.846 191.365 106.77 191.471 106.696C192.169 106.21 192.846 105.657 193.527 105.101C194.833 104.034 196.153 102.956 197.665 102.316C196.575 101.66 195.411 101.037 194.23 100.404C190.473 98.3916 186.538 96.2834 184.215 92.7157C180.652 87.2879 185.781 81.9765 189.499 78.1262C189.751 77.8653 189.996 77.6111 190.232 77.364C190.16 77.3423 190.084 77.3198 190.005 77.2962C188.627 76.8868 186.259 76.1834 185.631 74.8865C184.887 73.3014 185.728 72.6861 186.614 72.0375C186.94 71.799 187.272 71.556 187.534 71.2587C188.153 70.5951 188.507 70.8606 188.64 71.0375C188.551 70.9048 188.418 70.5509 188.197 69.7988C187.18 66.3922 182.313 62.9414 179.437 61.2602C175.19 58.7827 170.235 57.367 165.413 56.8361C165 56.7845 163.595 56.8534 162.017 56.9308C159.541 57.0524 156.638 57.1948 156.476 56.9246C156.41 56.8061 156.36 56.766 156.336 56.7541C156.377 56.7549 156.499 56.7247 156.742 56.4822C158.315 54.8375 162.778 55.0421 165.81 55.1811C166.529 55.2141 167.169 55.2434 167.669 55.2434C167.85 55.2434 168.354 55.2898 169.006 55.3499C170.9 55.5247 174.052 55.8154 174.217 55.4204C174.436 54.9202 169.884 53.5808 166.881 52.6973C165.635 52.3304 164.655 52.0422 164.395 51.9253C164.572 50.9963 171.518 52.1023 171.828 52.1908C172.031 52.2376 172.884 52.5711 173.949 52.987C175.899 53.7492 178.558 54.788 179.216 54.8452C178.269 54.3086 174.822 48.8838 172.844 45.7718C172.05 44.5226 171.493 43.646 171.43 43.608C170.217 42.9629 168.778 44.9368 167.562 46.6061C166.692 47.7987 165.936 48.8358 165.457 48.6515C164.838 48.4303 165.944 43.608 166.077 43.2098C166.829 40.5996 168.244 38.2106 169.66 35.9543C169.88 35.6104 170.46 34.92 171.146 34.1026C172.666 32.2912 174.71 29.856 174.527 29.1854C174.35 28.5217 167.625 23.7437 167.227 23.8322C166.758 23.9572 166.466 26.1791 166.257 27.7695C166.17 28.4307 166.097 28.9828 166.032 29.2296C164.838 33.6095 162.316 36.6621 157.361 34.0961C155.282 33.0343 154.751 32.1495 155.237 30.3799C155.403 29.8186 155.611 29.3743 155.812 28.9459C156.149 28.2264 156.465 27.5517 156.52 26.4424C156.624 25.0249 156.539 23.5804 156.454 22.1511C156.431 21.7514 156.407 21.3529 156.388 20.9565C156.122 15.6476 155.636 11.5774 150.371 9.2326C147.805 8.08233 139.443 5.33938 139.355 10.6926C139.266 14.5415 145.239 12.2852 142.584 9.40956C147.407 9.27684 145.372 15.0282 142.054 15.6918C137.099 16.6651 135.55 10.2944 137.983 7.02054C141.788 1.84432 154.928 4.41031 158.998 9.05563C159.445 8.22321 160.031 7.5585 160.62 6.89046C161.315 6.10282 162.014 5.31056 162.493 4.23335C163.864 1.22495 164.838 -0.411978 168.289 0.959498C170.855 2.02129 173.111 3.2158 172.138 6.17996C171.685 7.58478 171.133 8.83048 170.59 10.0547C169.646 12.1847 168.73 14.2497 168.421 16.9748C169.83 17.0657 171.215 17.3315 172.607 17.5986C173.925 17.8517 175.25 18.1059 176.606 18.2136C178.963 18.3977 179.113 18.0299 179.735 16.4972C179.86 16.189 180.004 15.8337 180.189 15.4264C180.897 13.9664 181.738 12.5949 182.667 11.2677C184.481 8.65746 186.56 6.13572 188.905 3.9679C188.995 3.88315 189.124 3.75654 189.284 3.60001C190.46 2.44907 193.29 -0.320066 194.302 0.0304334C194.17 -0.0138078 191.648 4.41031 191.515 4.67576C189.79 8.43626 188.551 13.7894 191.382 17.373C190.429 17.0646 189.671 17.5557 188.861 18.0807C188.393 18.3842 187.907 18.6989 187.357 18.8772C198.019 21.1777 205.54 29.0969 212.486 36.9718C213.249 37.8413 214.069 38.9011 214.937 40.0229C217.337 43.1248 220.102 46.7 223.059 48.0321C224.696 48.7842 227.483 48.2091 227.218 45.82C226.775 41.8383 223.325 45.0237 222.396 46.4394C219.476 37.7682 230.846 40.5554 230.447 47.457C230.226 51.3944 226.775 53.1198 223.236 52.3235C220.653 51.7557 218.707 50.1312 216.756 48.5023C215.666 47.5928 214.575 46.6819 213.37 45.9528C214.407 47.3178 215.362 48.6788 216.305 50.0222C218.54 53.207 220.705 56.2919 223.723 59.0924C223.904 59.2619 224.092 59.445 224.288 59.6354C225.628 60.9357 227.312 62.5705 229.164 62.4547C231.73 62.322 233.766 57.8094 230.536 57.2785C229.933 57.1871 229.556 57.8129 229.191 58.42C228.672 59.2824 228.176 60.107 227.085 58.7827C224.873 56.084 230.005 54.5798 231.775 55.2877C237.482 57.4997 236.243 66.4807 229.917 66.4807C231.929 66.4807 233.05 67.8266 234.168 69.168C234.722 69.8321 235.274 70.4952 235.933 70.9933C234.165 70.3252 232.388 70.748 230.652 71.1609C228.48 71.6777 226.373 72.1789 224.431 70.5066C226.068 72.6744 227.262 75.1519 228.058 77.7179C228.589 79.4433 228.943 81.213 229.164 82.9826C229.212 83.3433 229.192 83.9318 229.171 84.5709C229.132 85.735 229.087 87.0668 229.43 87.4952C229.712 87.8545 230.694 88.2287 231.624 88.5832C232.298 88.8398 232.944 89.0862 233.279 89.3091C234.562 90.1497 235.668 91.0345 236.641 92.1848C238.544 94.4853 239.871 97.538 239.605 100.546ZM156.321 56.7502C156.321 56.749 156.326 56.7491 156.336 56.7541C156.325 56.7538 156.32 56.7514 156.321 56.7502ZM151.211 137.267C151.216 137.267 151.221 137.267 151.225 137.267C151.221 137.267 151.216 137.267 151.211 137.267ZM240.181 103.953C240.176 103.954 240.171 103.955 240.167 103.956C240.172 103.954 240.176 103.953 240.181 103.953ZM157.671 31.1762C158.157 29.3623 160.9 29.849 160.635 31.7071C160.369 33.7864 157.14 33.1228 157.671 31.1762ZM167.536 2.86187C169.483 2.86187 169.483 5.91451 167.536 5.91451C165.59 5.91451 165.634 2.86187 167.536 2.86187ZM138.691 40.7766C140.992 39.1396 141.832 43.5195 139.266 43.3425C137.983 43.2098 137.674 41.4844 138.691 40.7766ZM139.311 27.283C137.629 26.177 140.372 24.8497 141.611 25.6461C142.806 26.4867 140.195 27.9024 139.311 27.283ZM141.169 22.0625C140.859 23.2128 137.143 23.3013 137.629 21.7971C138.072 20.3371 141.655 20.2487 141.169 22.0625ZM104.616 105.089C104.345 104.623 103.887 104.266 102.812 103.378C102.092 102.795 101.333 101.755 100.561 100.698C99.3418 99.0274 98.0932 97.3168 96.9276 97.3168C97.4142 97.3168 89.0084 101.52 89.3181 100.989C89.1854 101.166 89.0969 101.254 89.0527 101.254C89.0839 101.286 89.0931 101.317 89.1114 101.379C89.119 101.405 89.1282 101.437 89.1411 101.475C89.3623 102.626 100.201 111.164 100.246 111.12C100.796 110.569 99.9593 109.552 99.1926 108.619C98.604 107.903 98.0569 107.238 98.2106 106.873C98.0336 107.315 101.44 109.926 102.281 109.527C103.47 108.919 102.532 107.532 101.792 106.437C101.348 105.781 100.976 105.23 101.175 105.015C101.45 104.715 102.883 106.759 104.141 108.555C105.11 109.937 105.976 111.172 106.13 111.076C106.369 110.905 105.738 108.836 105.397 107.718C105.296 107.388 105.221 107.141 105.201 107.05C104.95 106.007 104.857 105.505 104.616 105.089ZM94.8181 113.816C96.186 114.46 97.3454 115.007 97.9894 112.624C98.3433 111.297 87.8581 108.598 86.5751 108.643C86.5751 108.643 89.7163 112.27 89.9375 112.403C90.5913 112.886 91.0808 112.931 91.7814 112.995C92.1711 113.031 92.6262 113.073 93.2113 113.199C93.7654 113.32 94.3063 113.575 94.8181 113.816ZM100.27 87.0775C100.195 86.2782 100.118 85.459 100.246 84.885C100.479 83.8479 100.925 82.9019 101.37 81.9581C101.682 81.2976 101.993 80.6382 102.23 79.9493C102.011 80.5295 99.8387 81.6087 99.0512 81.39C98.476 81.213 96.7949 78.2931 96.8391 78.2931C96.6217 78.3655 96.5898 79.009 96.5519 79.7712C96.4973 80.8705 96.4305 82.2166 95.7773 82.4517C95.4806 82.5507 94.4222 81.8879 93.7557 81.4706C93.5278 81.3279 93.3457 81.2138 93.2556 81.1688C93.1504 81.1162 92.9358 80.9776 92.6781 80.8112C92.0684 80.4176 91.2169 79.8678 90.9993 79.93C90.8374 79.9839 90.3906 80.7541 89.8814 81.6316C89.138 82.913 88.2617 84.4232 87.9466 84.2656C88.1935 84.3891 89.237 83.8667 89.9506 83.5094C90.26 83.3545 90.5074 83.2306 90.6011 83.2038C91.8841 82.9384 93.2113 82.8942 94.3174 83.6905C94.804 84.0887 96.5294 88.1589 95.7773 88.0261C95.6832 88.0073 95.5169 87.7881 95.3228 87.5323C95.0609 87.1871 94.7484 86.7751 94.4943 86.6989C92.5477 86.0795 90.5569 87.2298 89.1854 88.5128C86.0006 91.4907 87.8426 91.414 90.988 91.2829C91.207 91.2738 91.4324 91.2644 91.6629 91.2557C91.9489 91.2433 92.3084 91.2379 92.7172 91.2317C95.2169 91.1938 99.5613 91.128 100.246 89.2649C100.43 88.7823 100.351 87.9415 100.27 87.0775ZM96.264 67.7194C96.3082 67.7637 96.3525 67.8964 96.3967 68.2061C96.3967 68.4328 96.6278 68.772 96.8883 69.1544C97.3396 69.817 97.8792 70.6092 97.4585 71.1703C96.8159 72.0775 94.4937 71.822 93.1414 71.6731C92.911 71.6478 92.7087 71.6255 92.5477 71.6127C92.581 71.6127 92.6455 72.138 92.7272 72.8031C92.8628 73.9069 93.0457 75.3955 93.2113 75.5059C94.886 76.6517 96.4046 74.5587 97.5468 72.9844C98.1246 72.1881 98.606 71.5245 98.9627 71.4799C99.2599 71.4587 99.4246 71.8143 99.5987 72.1901C99.7875 72.5974 99.9872 73.0284 100.378 73.0284C99.9499 73.0284 102.837 67.3067 104.355 64.2974C104.874 63.2675 105.234 62.5554 105.245 62.499C104.051 62.7766 103.084 63.5944 102.124 64.4056C101.555 64.887 100.988 65.3661 100.378 65.7286C100.088 65.9099 99.5234 66.0986 98.918 66.3008C98.046 66.5921 97.0901 66.9114 96.7506 67.277L96.7506 67.2771C96.4852 67.5425 96.3524 67.6752 96.264 67.7194ZM94.5386 69.843C93.7422 70.5509 92.5035 69.8873 92.592 68.8255C92.7689 66.6134 96.1755 68.2946 94.5386 69.843ZM103.78 72.4801C103.832 72.2236 103.877 72.0006 103.918 71.8781C104.758 69.6218 106.174 67.4982 107.722 65.5074C107.944 65.065 106.882 64.3129 106.439 64.2686C105.655 64.1617 105.244 65.089 104.929 65.8004C104.853 65.9718 104.783 66.1306 104.714 66.2595C104.598 66.4746 104.475 66.6994 104.349 66.9317C103.458 68.5627 102.364 70.5669 102.015 72.232C101.968 72.4384 101.869 72.6448 101.774 72.8429C101.604 73.1971 101.447 73.5252 101.617 73.7805C101.617 73.8247 103.21 74.0017 103.298 73.9574C103.513 73.8043 103.664 73.0574 103.78 72.4801ZM120.552 37.193C117.721 38.476 114.801 38.9184 111.793 39.3166C111.67 39.3288 111.521 39.3309 111.363 39.3331C110.951 39.3389 110.476 39.3456 110.249 39.5334C110.344 39.4675 110.573 40.0263 110.815 40.6173C111.046 41.1818 111.289 41.7756 111.439 41.8826C112.102 42.325 116.659 41.6171 116.792 41.4402C116.127 42.4893 114.827 42.8474 113.656 43.1699C113.345 43.2554 113.044 43.3383 112.766 43.431C113.12 43.5195 116.659 43.5638 116.792 43.431C116.132 44.3264 115.159 44.5818 114.179 44.8388C113.319 45.0643 112.454 45.2911 111.793 45.9528C112.559 45.6823 113.245 45.8597 113.921 46.0344C114.571 46.2027 115.213 46.3685 115.907 46.1297C116.883 45.8131 117.876 45.0713 118.846 44.3459C119.502 43.8552 120.149 43.372 120.774 43.0329C121.24 42.7998 123.99 41.879 126.495 41.0405C128.744 40.2874 130.795 39.6006 130.816 39.5378C130.255 39.2223 129.368 39.129 128.449 39.0324C127.048 38.885 125.573 38.7299 125.065 37.7682C124.527 36.7998 125.183 36.3384 125.74 35.9466C126.099 35.6939 126.417 35.4701 126.348 35.1579C126.332 35.1028 126.322 35.0435 126.312 34.982C126.263 34.6978 126.206 34.3665 125.552 34.1846C124.901 34.0148 123.453 35.1122 122.228 36.0408C121.538 36.564 120.919 37.0336 120.552 37.193ZM106.307 42.4577C105.555 42.9001 104.272 43.5638 103.387 43.2541C102.971 43.1007 102.977 42.6545 102.983 42.2914C102.989 41.9212 102.993 41.6373 102.546 41.8383C102.069 42.0698 101.202 42.4078 100.108 42.8345C94.5089 45.0179 82.9468 49.5268 87.0176 54.0047C88.0793 55.1992 91.8841 54.978 91.0877 52.8544C90.672 51.7736 89.9612 52.1337 89.3685 52.4339C89.015 52.613 88.7036 52.7708 88.5218 52.589C87.9909 52.0581 89.3181 50.7308 89.8932 50.4211C91.9629 49.2843 92.4384 50.2217 92.9775 51.2846C93.2567 51.8349 93.5529 52.4188 94.0962 52.7659C94.1279 52.7976 95.1876 52.6192 96.5285 52.3934C98.93 51.989 102.233 51.4328 102.148 51.6599C101.461 53.4285 99.6787 54.5317 97.8632 55.6552C95.8185 56.9205 93.7321 58.2116 93.1228 60.5081C92.9938 60.9814 93.0844 61.507 93.1708 62.0086C93.2622 62.5385 93.3489 63.0417 93.1671 63.428C92.8554 64.1138 91.7529 64.7337 90.8503 65.2413C90.4718 65.4541 90.1285 65.6472 89.8932 65.8171C89.7757 65.9003 89.637 65.9933 89.4875 66.0937C88.2859 66.8995 86.3822 68.1764 89.0969 68.6485C89.534 68.7294 89.6393 68.7571 89.6666 68.7227C89.7138 68.6632 89.5264 68.4175 90.4241 67.9406C91.5302 67.3655 93.3883 66.171 94.0077 65.2862C94.2761 64.9146 94.4096 64.437 94.5476 63.9433C94.7053 63.3791 94.8689 62.7939 95.2464 62.322C95.5067 62.0184 96.0647 61.7254 96.6024 61.443C97.1615 61.1494 97.6988 60.8672 97.8567 60.5966C98.1693 60.0265 98.222 59.4717 98.2754 58.9099C98.3504 58.1203 98.4268 57.3169 99.2281 56.4379C99.7673 55.8573 102.406 54.2367 105.039 52.6193C108.024 50.7861 111.002 48.957 110.908 48.6515C110.533 48.6227 110.104 48.615 109.648 48.6068C107.304 48.5648 104.271 48.5104 104.493 45.5104C104.514 45.1701 104.975 44.5744 105.428 43.9884C105.918 43.3552 106.399 42.7334 106.307 42.4577ZM96.4218 28.9939C98.4488 28.3276 100.865 27.5333 100.865 26.9733C100.909 24.7613 90.5126 23.1686 90.1144 26.6194C90.026 27.8581 91.309 29.5835 92.592 28.3005C93.0989 27.7936 92.7047 27.4797 92.3701 27.2134C92.15 27.0381 91.9557 26.8834 92.0611 26.7079C92.592 25.7346 94.3174 26.9733 94.5828 27.7254C94.7295 28.2144 94.3897 28.717 94.0863 29.1658C93.8407 29.5291 93.6188 29.8572 93.698 30.1144C93.6416 29.9078 94.9256 29.4857 96.4218 28.9939ZM72.4622 61.8796C71.4889 61.8796 67.8169 71.6569 68.6575 72.8957C69.5824 74.3309 69.6566 74.1566 69.9078 73.5663C70.005 73.3377 70.1288 73.0469 70.3386 72.7629C70.706 72.2854 71.0342 71.8323 71.3445 71.404C72.903 69.2529 74.0082 67.7274 77.3287 66.8788C77.8163 66.748 78.16 66.6908 78.4131 66.6486C79.1018 66.5338 79.1202 66.5307 79.5408 65.4631C80.2044 63.782 79.585 59.8445 77.8154 59.0039C76.09 58.1633 73.9664 59.5348 74.4973 61.6142C75.0724 63.9147 76.4882 63.0299 77.5499 61.9238C77.6909 61.7594 77.6073 61.3827 77.531 61.0392C77.4672 60.752 77.4086 60.488 77.4905 60.3903C77.4448 60.4618 77.5094 60.7155 77.6003 61.0718C77.9248 62.3444 78.5831 64.9265 75.7361 65.1977C74.0889 65.3474 73.4351 63.7739 73.0062 62.7416C72.8015 62.249 72.648 61.8796 72.4622 61.8796ZM77.5057 60.3754C77.5002 60.3798 77.4951 60.3848 77.4905 60.3903C77.4947 60.3838 77.4997 60.3788 77.5057 60.3754ZM72.609 85.479C72.311 85.3252 72.0117 85.1708 71.7101 85.0177C72.1333 87.2108 71.0508 88.6343 69.8012 90.2776C69.6139 90.5239 69.4229 90.7751 69.2326 91.0345C70.3511 91.1974 71.4642 91.4962 72.5622 91.791C75.9376 92.6971 79.1699 93.5648 81.9741 90.3267C82.151 90.1497 83.9649 88.0704 83.5667 87.628C83.3396 87.3683 82.2076 87.6563 81.4634 87.8456C81.1932 87.9144 80.9741 87.9701 80.868 87.9819C77.7684 88.1408 75.2398 86.8363 72.609 85.479ZM74.1609 115.241C74.0075 115.357 73.8541 115.473 73.701 115.588C74.5769 115.757 75.3888 115.991 76.1849 116.219C77.6281 116.633 79.0192 117.033 80.6455 117.008C80.1167 116.78 78.7711 115.143 78.656 114.836C78.1251 113.553 78.5233 112.226 79.2311 111.076C77.8426 112.464 76.0018 113.853 74.1609 115.241ZM66.6666 110.058C67.7726 114.527 70.958 113.951 73.9222 111.562C74.9397 110.722 82.4165 103.82 81.7529 102.626C78.7002 102.051 76.0457 100.458 73.6567 98.5555C72.9507 100.973 71.1169 103.049 69.4962 104.884C67.7657 106.843 66.2782 108.528 66.6666 110.058ZM84.2304 133.993C83.8322 135.364 81.3989 135.63 81.3989 133.86C81.3989 131.825 84.894 131.825 84.2304 133.993ZM83.555 67.3473C83.5055 67.0166 83.4608 66.7183 83.4783 66.6134C83.788 65.1092 84.4073 64.0032 85.4249 62.7644C85.5896 62.5832 85.8646 62.3837 86.1588 62.1703C86.6547 61.8105 87.2049 61.4113 87.3715 60.9948C87.5135 60.7108 87.4023 60.4268 87.2885 60.1361C87.1895 59.8833 87.0886 59.6254 87.1503 59.3578C87.2498 58.9931 87.4424 58.6594 87.6212 58.3499C87.9194 57.8333 88.179 57.3838 87.9024 56.9688C87.8276 56.8441 87.1621 56.635 86.5562 56.4446C86.0873 56.2973 85.6541 56.1612 85.5576 56.084C83.6552 54.624 83.434 52.3677 84.2746 50.3326C86 46.3067 91.4859 43.2983 95.2464 41.6614C95.5401 41.5377 96.4657 41.306 97.5514 41.0343C99.5732 40.5282 102.15 39.8832 102.237 39.5378C102.65 37.8854 101.697 38.1081 100.836 38.3091C100.591 38.3664 100.353 38.422 100.157 38.4318C90.6453 39.0954 80.5583 48.2533 76.0015 55.9513C83.0801 55.0222 83.3455 63.2068 81.6644 67.9406C81.8226 67.9582 82.1275 68.0806 82.4515 68.2106C82.9427 68.4077 83.4777 68.6224 83.611 68.5158C83.718 68.4355 83.6308 67.8535 83.555 67.3473ZM86.7307 136.97C86.2572 137.387 85.8216 137.771 85.9115 138.063C86.2655 139.169 94.3174 139.656 94.5386 137.532C94.804 135.718 88.2563 132.931 87.5927 133.55C87.3003 133.794 87.4374 134.185 87.59 134.621C87.7144 134.976 87.8491 135.36 87.7697 135.718C87.6826 136.132 87.1889 136.566 86.7307 136.97ZM100.476 132.776C100.4 133.63 100.329 134.446 101.484 134.922C102.281 135.231 106.262 133.639 106.395 132.71C106.661 131.382 97.5912 130.011 96.7064 129.878C95.2907 129.657 86.7079 128.463 86 130.807C86.2103 130.146 90.0531 132.281 92.6913 133.747C93.9375 134.439 94.915 134.982 95.1137 135.01C96.1755 135.143 100.511 132.975 100.511 132.002C100.521 132.258 100.498 132.519 100.476 132.776ZM102.944 125.897C103.829 121.694 113.872 126.826 113.474 128.595C112.677 131.958 102.148 129.834 102.944 125.897ZM123.251 125.366C123.03 126.958 120.906 126.737 120.774 125.277C121.216 123.994 123.472 123.552 123.251 125.366ZM120.508 147.044C123.561 153.105 132.276 151.866 137.408 149.964C138.603 149.521 139.753 149.035 140.859 148.415C137.054 147.309 132.896 144.08 133.161 139.656C133.382 136.249 136.568 133.948 139.797 133.993C137.777 131.438 134.639 132.334 131.914 133.111C131.476 133.236 131.049 133.358 130.639 133.462C126.923 134.435 122.897 134.524 119.092 134.391C120.996 136.075 120.567 139.03 120.212 141.479C120.138 141.99 120.067 142.479 120.021 142.929C122.101 142.045 122.853 140.983 124.136 139.169C124.175 139.122 124.293 138.94 124.464 138.675C125.262 137.44 127.225 134.404 127.808 134.878C128.091 135.104 127.94 136.18 127.817 137.053C127.748 137.547 127.688 137.976 127.719 138.151C127.817 138.91 128.321 139.547 128.782 140.129C129.154 140.599 129.498 141.034 129.578 141.469C129.578 141.381 128.784 148.393 130.278 148.063C129.469 148.245 128.292 147.755 127.296 147.34C126.875 147.165 126.486 147.003 126.171 146.911C124.047 146.336 122.632 146.469 120.508 147.044ZM163.864 159.033C163.864 159.033 163.997 157.087 164.086 156.91C164.264 156.579 164.529 156.38 164.798 156.178C164.998 156.029 165.199 155.878 165.369 155.671C165.273 155.78 163.96 155.089 162.186 154.154C158.228 152.068 151.97 148.77 151.787 150.45C151.787 150.273 156.078 153.238 156.211 153.37C156.612 153.771 157.082 154.346 157.601 154.979C159.145 156.862 161.114 159.265 162.935 159.166C163.61 159.139 163.643 159.26 163.666 159.258C163.681 159.257 163.692 159.206 163.864 159.033ZM172.836 128.369C168.764 129.922 165.366 131.218 162.36 135.099C163.028 135.099 163.749 135.153 164.494 135.208C166.61 135.366 168.91 135.538 170.678 134.524C172.333 133.548 173.04 131.783 173.736 130.046C174.082 129.183 174.425 128.327 174.881 127.578C174.18 127.857 173.499 128.116 172.836 128.369ZM167.89 155.892C168.421 154.388 170.589 155.007 170.412 156.467C170.191 158.325 167.36 157.573 167.89 155.892ZM176.34 160.449C176.473 158.724 179.128 159.077 178.906 160.759C178.685 162.44 176.208 161.997 176.34 160.449ZM175.76 152.093C176.854 150.43 177.909 148.825 179.393 147.309C179.836 146.852 180.509 146.321 181.237 145.747C182.692 144.601 184.363 143.283 184.835 142.045C184.8 142.131 183.733 142.425 182.385 142.796C180.27 143.379 177.466 144.151 176.871 144.611C178.376 141.602 178.376 138.107 178.376 135.099C173.605 135.479 173.055 139.151 172.5 142.861C172.215 144.759 171.929 146.667 171.076 148.15C170.475 149.202 169.841 149.624 169.387 149.927C168.77 150.338 168.481 150.53 169.041 151.778C169.395 152.618 172.27 155.317 173.111 155.361C173.797 155.416 173.819 155.352 173.927 155.03C173.993 154.834 174.092 154.542 174.394 154.122C174.875 153.438 175.321 152.761 175.76 152.093ZM190.409 114.571C187.401 119.083 184.879 123.552 185.897 129.082C187.625 127.564 188.604 125.571 189.566 123.61C190.786 121.126 191.98 118.692 194.643 117.34C193.692 117.407 190.688 115.128 190.409 114.571ZM196.868 132.4C196.426 133.639 195.585 133.904 195.32 132.621C194.789 130.232 197.222 131.294 196.868 132.4ZM224.664 63.9099C223.324 62.4159 221.998 60.9381 220.051 60.1542C219.608 60.862 222.13 64.0474 222.661 64.6226C224.077 66.1267 225.802 67.277 227.97 67.0116C226.681 66.1587 225.668 65.0297 224.664 63.9099ZM222.382 79.666C221.912 76.7782 221.367 73.4367 218.945 71.5242C218.945 73.0284 217.662 74.798 216.865 74.975C216.392 75.1024 215.897 74.9603 215.406 74.8196C214.704 74.6184 214.014 74.4203 213.415 75.0192C214.652 75.838 215.971 76.4023 217.272 76.9584C219.133 77.7546 220.955 78.5338 222.44 80.0185C222.421 79.9018 222.401 79.7843 222.382 79.666ZM202.885 58.473C203.903 59.9772 205.894 59.4906 205.894 57.9864C205.849 54.4471 199.523 57.0573 199.656 60.3312C199.744 64.0917 204.743 68.5158 207.486 70.5066C210.627 72.7629 214.698 72.1435 215.759 67.8079C216.753 63.6497 213.125 60.3179 210.119 57.5579C209.511 56.9997 208.929 56.4648 208.415 55.9513C211.556 62.322 200.939 63.782 202.885 58.473ZM210.229 93.2023C208.15 93.866 207.398 91.0788 209.433 90.6806C211.07 90.3709 211.999 92.6715 210.229 93.2023ZM203.106 94.8393C201.868 96.2992 198.948 94.1757 200.54 92.6715C201.868 91.477 204.345 93.3793 203.106 94.8393ZM177.093 40.4226C178.641 43.9619 180.543 47.6339 182.844 50.7308C184.923 53.518 190.675 58.1633 193.196 53.2968C194.037 51.7041 193.462 47.2358 190.63 48.1648C188.418 48.9169 190.144 51.7041 191.338 52.5005C188.905 53.1198 186.649 50.2442 187.578 47.9879C188.078 46.7766 189.174 46.2706 190.278 45.761C191.028 45.4143 191.783 45.0659 192.356 44.4928C186.472 42.0153 181.384 37.9894 177.447 32.9901C177.165 32.9901 177.461 34.295 177.727 35.4626C177.92 36.3117 178.096 37.0882 178.022 37.2373C177.895 37.4693 177.537 37.5404 177.169 37.6137C176.764 37.694 176.347 37.7769 176.208 38.0778C176.023 38.4846 176.641 39.602 176.953 40.1647C177.014 40.2753 177.064 40.3645 177.093 40.4226ZM193.373 67.3213C196.205 65.7728 196.913 71.4357 196.913 73.0284C196.913 71.4799 200.496 70.9933 201.469 71.0375C201.333 70.9006 201.194 70.7628 201.055 70.6238C198.219 67.7997 194.947 64.5416 195.453 60.1984C195.895 56.3494 199.744 52.1908 203.947 53.0314C202.527 52.0779 201.209 51.1143 199.89 50.1502C198.456 49.1013 197.02 48.0519 195.453 47.0146C195.453 48.1199 195.598 49.1068 195.735 50.0347C196.063 52.2636 196.341 54.1524 194.435 56.5264C193.285 57.9864 192.002 58.6058 190.144 58.8712C190.108 58.8831 189.739 58.8504 189.213 58.804C187.778 58.6771 185.174 58.447 185.012 58.7385C185.233 58.3404 192.705 70.1452 192.312 70.1527C192.376 70.1514 192.453 69.8225 192.553 69.3876C192.729 68.6283 192.98 67.5461 193.373 67.3213ZM199.877 130.94C199.257 132.4 198.063 131.559 197.753 130.586C196.691 127.578 200.363 129.834 199.877 130.94ZM199.611 114.748C197.444 114.748 197.974 111.474 200.054 112.27C201.381 112.757 201.16 114.748 199.611 114.748ZM200.231 127.976C200.054 124.746 203.062 129.17 202.929 129.392C202.045 130.94 200.319 129.038 200.231 127.976ZM208.692 126.244C208.921 126.057 209.139 125.878 209.344 125.72C213.061 122.888 217.485 117.668 218.724 112.845C218.945 112.093 217.396 109.837 216.91 109.35C216.342 108.76 216.31 108.519 216.223 108.497C216.14 108.475 216.006 108.65 215.317 108.908C213.317 109.681 213.824 110.47 214.398 111.363C214.776 111.951 215.182 112.585 214.919 113.288C214.919 113.199 209.787 117.004 210.052 117.048C209.73 116.977 209.495 115.604 209.394 115.011C209.369 114.87 209.353 114.773 209.344 114.748C208.283 110.191 209.079 106.253 210.893 102.006C209.383 103.306 207.22 103.392 205.169 103.473C202.473 103.58 199.968 103.68 199.39 106.519C200.432 106.519 200.942 106.198 201.274 105.988C201.76 105.682 201.867 105.614 202.708 107.138C203.575 108.706 203.441 111.429 203.347 113.332C203.34 113.469 203.334 113.602 203.328 113.73C203.195 115.81 202.929 117.933 202.399 119.924C202.303 120.346 202.074 120.85 201.842 121.362C201.539 122.032 201.229 122.715 201.204 123.242C201.16 124.658 202.841 127.578 204.434 128.153C205.751 128.642 207.388 127.307 208.692 126.244ZM219.469 93.1096C220.031 92.5466 220.593 91.9839 221.201 91.4769C221.366 91.3573 221.783 91.1264 222.268 90.8578C223.219 90.3319 224.431 89.6612 224.519 89.3976C225.05 88.1589 223.502 84.1329 222.926 82.9826C222.291 85.4719 221.073 87.7133 219.857 89.9495C218.956 91.6082 218.056 93.2641 217.396 95.0162C218.139 94.4411 218.804 93.7751 219.469 93.1096Z" fill="#F593B1"/>
</svg>
