<svg width="295" height="177" viewBox="0 0 295 177" fill="none" xmlns="http://www.w3.org/2000/svg">
<path d="M77.2342 111.351C83.8933 182.744 149.959 176.883 149.959 176.883C149.959 176.883 113.462 169.691 110.798 118.011C108.985 82.8284 126.515 60.4707 146.762 28.5038C153.181 18.369 158.217 0 158.217 0C158.217 0 147.288 15.7721 138.504 24.2416C123.585 38.6267 73.1521 67.5868 77.2342 111.351Z" fill="url(#paint0_linear)"/>
<path d="M144.364 57.0076C122.687 87.9089 131.045 110.286 136.905 104.159C142.764 98.0318 181.925 81.782 194.711 129.199C203.755 162.735 169.404 174.22 169.404 174.22C169.404 174.22 219.752 171.597 219.752 129.199C219.752 83.6467 177.396 87.7834 177.396 57.0076C177.396 36.7619 202.17 21.3113 202.17 21.3113C202.17 21.3113 169.404 21.3113 144.364 57.0076Z" fill="url(#paint1_linear)"/>
<defs>
<linearGradient id="paint0_linear" x1="238.966" y1="100.429" x2="69.8075" y2="100.429" gradientUnits="userSpaceOnUse">
<stop stop-color="#319D30"/>
<stop offset="1" stop-color="#7DBC33"/>
</linearGradient>
<linearGradient id="paint1_linear" x1="238.966" y1="100.429" x2="69.8075" y2="100.429" gradientUnits="userSpaceOnUse">
<stop stop-color="#319D30"/>
<stop offset="1" stop-color="#7DBC33"/>
</linearGradient>
</defs>
</svg>
