<svg width="295" height="177" viewBox="0 0 295 177" fill="none" xmlns="http://www.w3.org/2000/svg">
<path fill-rule="evenodd" clip-rule="evenodd" d="M120.586 0H141.134V5.1372H120.586V0ZM120.586 7.70579H141.134V12.843H120.586V7.70579ZM141.134 15.4116H120.586V20.5488H141.134V15.4116ZM120.586 23.1174H141.134V28.2546H120.586V23.1174ZM141.134 30.8232H120.586V35.9604H141.134V30.8232ZM120.586 38.529H141.134V41.148C135.783 41.3585 130.6 42.2239 125.663 43.6662H120.586V38.529ZM143.703 41.0976C149.966 41.0976 156.02 41.9942 161.743 43.6662H164.252V38.529H143.703L143.703 41.0976ZM168.912 46.2348C172.286 47.6764 175.512 49.3985 178.559 51.372H187.369V46.2348H168.912ZM182.238 53.9406C184.023 55.2815 185.735 56.7132 187.369 58.229V53.9406H182.238ZM206.538 92.0084C207.046 94.4187 207.418 96.8787 207.647 99.3803L210.926 94.6988L206.717 91.7522L206.538 92.0084ZM207.918 105.313C207.918 107.947 207.759 110.544 207.451 113.095L217.238 99.1186L213.03 96.172L207.893 103.508C207.91 104.107 207.918 104.709 207.918 105.313ZM206.304 119.684C204.704 126.679 201.963 133.238 198.286 139.156L198.504 139.308L210.29 122.475L206.304 119.684ZM196.886 141.311C192.973 147.081 188.146 152.18 182.612 156.401L185.244 158.245L197.031 141.412L196.886 141.311ZM180.42 158.002C179.635 158.549 178.838 159.08 178.029 159.593L167.903 174.054L172.112 177L183.771 160.349L180.42 158.002ZM172.811 162.567C169.971 164.013 167.009 165.255 163.945 166.272L161.465 169.815L165.673 172.761L172.811 162.567ZM159.989 167.444C159.521 167.566 159.052 167.683 158.58 167.795L159.36 168.342L159.989 167.444ZM118.5 164.393C117.809 164.098 117.125 163.791 116.446 163.473L117.554 165.055L118.5 164.393ZM111.494 160.878C107.321 158.454 103.446 155.573 99.9382 152.304L99.4558 152.642L111.242 169.475L115.45 166.528L111.494 160.878ZM98.0611 150.483C97.9241 150.345 97.7876 150.206 97.6518 150.066L97.9826 150.538L98.0611 150.483ZM85.0089 131.402C82.9281 126.727 81.3892 121.758 80.4722 116.575L77.1448 111.823L72.9367 114.769L84.723 131.602L85.0089 131.402ZM79.7409 111.052C79.7117 110.722 79.685 110.392 79.6608 110.061L79.2489 110.349L79.7409 111.052ZM79.4879 105.313C79.4879 104.156 79.5185 103.006 79.5789 101.864L70.1975 88.4663L65.9893 91.4128L77.7756 108.245L79.5105 107.031C79.4955 106.46 79.4879 105.887 79.4879 105.313ZM79.915 97.8663C80.1964 95.4296 80.6142 93.0344 81.1605 90.6886L76.5096 84.0465L72.3015 86.9931L79.915 97.8663ZM82.2724 86.5498C82.8873 84.534 83.5988 82.5602 84.4013 80.6339L83.6961 79.6267L79.4879 82.5733L82.2724 86.5498ZM99.1393 59.0778C101.04 57.2455 103.053 55.5293 105.168 53.9406H97.4681V59.0778H99.1393ZM108.847 51.372C111.75 49.4917 114.816 47.8395 118.017 46.4408V46.2348H97.4681V51.372H108.847ZM143.703 15.4116H164.252V20.5488H143.703V15.4116ZM164.252 23.1174H143.703V28.2546H164.252V23.1174ZM143.703 30.8232H164.252V35.9604H143.703V30.8232ZM187.369 38.529H166.82V43.6662H187.369V38.529ZM97.4681 30.8232H118.017V35.9604H97.4681V30.8232ZM118.017 38.529H97.4681V43.6662H118.017V38.529ZM54.6352 155.805L66.4215 172.638L70.6296 169.691L58.8433 152.859L54.6352 155.805ZM72.7337 168.218L60.9474 151.385L65.1555 148.439L76.9418 165.271L72.7337 168.218ZM67.2596 146.966L79.0459 163.798L83.2541 160.852L71.4678 144.019L67.2596 146.966ZM85.3581 159.378L73.5718 142.545L77.78 139.599L89.5662 156.431L85.3581 159.378ZM79.884 138.125L91.6703 154.958L95.8785 152.011L84.0922 135.179L79.884 138.125ZM65.7863 144.861L54 128.029L58.2081 125.082L69.9944 141.915L65.7863 144.861ZM60.3122 123.609L72.0985 140.441L76.3067 137.495L64.5204 120.662L60.3122 123.609ZM78.4107 136.022L66.6244 119.189L70.8326 116.242L82.6189 133.075L78.4107 136.022ZM60.0023 96.2971L71.4634 112.665L75.6715 109.719L64.2105 93.3505L60.0023 96.2971ZM93.1436 157.063L104.93 173.895L109.138 170.949L97.3518 154.116L93.1436 157.063ZM241.851 144.574L230.065 161.407L225.857 158.46L237.643 141.628L241.851 144.574ZM223.753 156.987L235.539 140.155L231.331 137.208L219.545 154.041L223.753 156.987ZM229.227 135.735L217.441 152.567L213.233 149.621L225.019 132.788L229.227 135.735ZM211.129 148.148L222.915 131.315L218.707 128.368L206.92 145.201L211.129 148.148ZM216.603 126.895L204.816 143.728L200.608 140.781L212.394 123.949L216.603 126.895ZM204.181 171.504L215.967 154.671L211.759 151.725L199.973 168.557L204.181 171.504ZM209.655 150.252L197.869 167.084L193.661 164.138L205.447 147.305L209.655 150.252ZM191.557 162.664L203.343 145.832L199.135 142.885L187.349 159.718L191.557 162.664ZM218.076 124.791L229.862 107.959L225.654 105.012L213.868 121.845L218.076 124.791ZM223.55 103.538L211.764 120.371L207.555 117.424L219.342 100.592L223.55 103.538ZM120.3 108.54C118.54 106.62 115.62 105.14 111.54 104.1L107.76 103.08C105.16 102.4 103.4 101.62 102.48 100.74C101.56 99.86 101.1 98.52 101.1 96.72C101.1 94.92 101.7 93.48 102.9 92.4C104.1 91.28 105.96 90.72 108.48 90.72C113.08 90.72 115.64 93.2 116.16 98.16L122.64 97.14C122.12 92.98 120.76 89.82 118.56 87.66C116.4 85.46 112.84 84.36 107.88 84.36C102.96 84.36 99.2404 85.5 96.7204 87.78C94.2004 90.06 92.9404 93.16 92.9404 97.08C92.9404 100.96 93.8004 103.88 95.5204 105.84C97.2404 107.8 100.1 109.28 104.1 110.28L107.52 111.12C110.36 111.84 112.28 112.64 113.28 113.52C114.28 114.4 114.78 115.7 114.78 117.42C114.78 121.46 112.12 123.48 106.8 123.48C104.32 123.48 102.38 122.84 100.98 121.56C99.6204 120.24 98.8204 118.4 98.5804 116.04L92.0404 117.06C92.5604 121.22 93.9604 124.4 96.2404 126.6C98.5204 128.76 102.22 129.84 107.34 129.84C112.46 129.84 116.34 128.7 118.98 126.42C121.62 124.1 122.94 121.02 122.94 117.18C122.94 113.34 122.06 110.46 120.3 108.54ZM142.773 85.2H128.193V129H142.773C148.333 129 152.533 127.62 155.373 124.86C156.653 123.62 157.673 122.04 158.433 120.12C159.233 118.16 159.773 116.16 160.053 114.12C160.333 112.08 160.473 109.58 160.473 106.62C160.473 103.62 160.233 100.9 159.753 98.46C159.273 96.02 158.413 93.76 157.173 91.68C154.653 87.36 149.853 85.2 142.773 85.2ZM136.353 91.5H141.693C145.973 91.5 148.873 93.04 150.393 96.12C151.673 98.8 152.313 102.46 152.313 107.1C152.313 111.74 151.673 115.4 150.393 118.08C148.873 121.16 145.973 122.7 141.693 122.7H136.353V91.5ZM192.347 108.54C190.587 106.62 187.667 105.14 183.587 104.1L179.807 103.08C177.207 102.4 175.447 101.62 174.527 100.74C173.607 99.86 173.147 98.52 173.147 96.72C173.147 94.92 173.747 93.48 174.947 92.4C176.147 91.28 178.007 90.72 180.527 90.72C185.127 90.72 187.687 93.2 188.207 98.16L194.687 97.14C194.167 92.98 192.807 89.82 190.607 87.66C188.447 85.46 184.887 84.36 179.927 84.36C175.007 84.36 171.287 85.5 168.767 87.78C166.247 90.06 164.987 93.16 164.987 97.08C164.987 100.96 165.847 103.88 167.567 105.84C169.287 107.8 172.147 109.28 176.147 110.28L179.567 111.12C182.407 111.84 184.327 112.64 185.327 113.52C186.327 114.4 186.827 115.7 186.827 117.42C186.827 121.46 184.167 123.48 178.847 123.48C176.367 123.48 174.427 122.84 173.027 121.56C171.667 120.24 170.867 118.4 170.627 116.04L164.087 117.06C164.607 121.22 166.007 124.4 168.287 126.6C170.567 128.76 174.267 129.84 179.387 129.84C184.507 129.84 188.387 128.7 191.027 126.42C193.667 124.1 194.987 121.02 194.987 117.18C194.987 113.34 194.107 110.46 192.347 108.54Z" fill="url(#paint0_linear)"/>
<defs>
<linearGradient id="paint0_linear" x1="147.926" y1="0" x2="147.926" y2="177" gradientUnits="userSpaceOnUse">
<stop stop-color="#F4882A"/>
<stop offset="1" stop-color="#C43797"/>
</linearGradient>
</defs>
</svg>
